<svg xmlns="http://www.w3.org/2000/svg" width="1920" height="510" viewBox="0 0 1920 510">
    <defs>
        <clipPath id="q70atulf6a">
            <path data-name="사각형 804" transform="translate(2070 1829)" style="fill:#18181c" d="M0 0h1920v510H0z"/>
        </clipPath>
    </defs>
    <path data-name="사각형 777" style="fill:#18181c" d="M0 0h1920v510H0z"/>
    <g data-name="마스크 그룹 2" transform="translate(-2070 -1829)" style="clip-path:url(#q70atulf6a)">
        <g data-name="그룹 869" style="opacity:.56">
            <path data-name="선 18" transform="translate(3353.946 1528.144)" style="fill:none;stroke:#1461ff;stroke-linecap:round;stroke-miterlimit:10" d="M614.19 0 0 651.22"/>
            <path data-name="선 19" transform="translate(3382.11 1558.006)" style="fill:none;stroke:#1461ff;stroke-linecap:round;stroke-miterlimit:10" d="M614.19 0 0 651.22"/>
            <path data-name="선 20" transform="translate(3410.274 1587.868)" style="fill:none;stroke:#1461ff;stroke-linecap:round;stroke-miterlimit:10" d="M614.19 0 0 651.22"/>
            <path data-name="선 21" transform="translate(3438.438 1617.73)" style="fill:none;stroke:#1461ff;stroke-linecap:round;stroke-miterlimit:10" d="M614.19 0 0 651.22"/>
            <path data-name="선 22" transform="translate(3466.602 1647.592)" style="fill:none;stroke:#1461ff;stroke-linecap:round;stroke-miterlimit:10" d="M614.19 0 0 651.22"/>
            <path data-name="선 23" transform="translate(3494.766 1677.454)" style="fill:none;stroke:#1461ff;stroke-linecap:round;stroke-miterlimit:10" d="M614.19 0 0 651.22"/>
            <g data-name="그룹 868">
                <path data-name="선 24" transform="translate(2491 1746.628)" style="fill:none;stroke:#1461ff;stroke-linecap:round;stroke-miterlimit:10" d="M1163.139 1233.266 0 0"/>
                <path data-name="선 25" transform="translate(2519.164 1716.766)" style="fill:none;stroke:#1461ff;stroke-linecap:round;stroke-miterlimit:10" d="M1163.139 1233.266 0 0"/>
                <path data-name="선 26" transform="translate(2547.328 1686.904)" style="fill:none;stroke:#1461ff;stroke-linecap:round;stroke-miterlimit:10" d="M1163.139 1233.266 0 0"/>
                <path data-name="선 27" transform="translate(2575.492 1657.042)" style="fill:none;stroke:#1461ff;stroke-linecap:round;stroke-miterlimit:10" d="M1163.139 1233.266 0 0"/>
                <path data-name="선 28" transform="translate(2603.656 1627.18)" style="fill:none;stroke:#1461ff;stroke-linecap:round;stroke-miterlimit:10" d="M1163.139 1233.266 0 0"/>
                <path data-name="선 29" transform="translate(2631.82 1597.318)" style="fill:none;stroke:#1461ff;stroke-linecap:round;stroke-miterlimit:10" d="M1163.139 1233.266 0 0"/>
                <path data-name="선 30" transform="translate(2659.983 1567.456)" style="fill:none;stroke:#1461ff;stroke-linecap:round;stroke-miterlimit:10" d="M1163.139 1233.266 0 0"/>
                <path data-name="선 31" transform="translate(2688.147 1537.594)" style="fill:none;stroke:#1461ff;stroke-linecap:round;stroke-miterlimit:10" d="M1163.139 1233.266 0 0"/>
                <path data-name="선 32" transform="translate(2716.311 1507.732)" style="fill:none;stroke:#1461ff;stroke-linecap:round;stroke-miterlimit:10" d="M1163.139 1233.266 0 0"/>
            </g>
        </g>
    </g>
</svg>
